<svg width="27" height="27" viewBox="0 0 27 27" fill="none" xmlns="http://www.w3.org/2000/svg">
<path d="M9.4207 10.0471C10.0085 8.79989 11.594 7.90595 13.459 7.90595C15.825 7.90595 17.7413 9.34375 17.7413 11.1177C17.7413 12.6165 16.3731 13.8745 14.5231 14.2299C13.9429 14.3413 13.459 14.808 13.459 15.4001M13.459 18.6118H13.4697M23.0943 13.2589C23.0943 14.5242 22.845 15.7772 22.3608 16.9462C21.8766 18.1152 21.1669 19.1774 20.2721 20.0721C19.3774 20.9668 18.3152 21.6765 17.1462 22.1607C15.9772 22.645 14.7243 22.8942 13.459 22.8942C12.1936 22.8942 10.9407 22.645 9.7717 22.1607C8.60269 21.6765 7.5405 20.9668 6.64578 20.0721C5.75106 19.1774 5.04133 18.1152 4.55711 16.9462C4.07289 15.7772 3.82367 14.5242 3.82367 13.2589C3.82367 10.7035 4.83881 8.25268 6.64578 6.44571C8.45275 4.63874 10.9035 3.6236 13.459 3.6236C16.0144 3.6236 18.4652 4.63874 20.2721 6.44571C22.0791 8.25268 23.0943 10.7035 23.0943 13.2589Z" stroke="#4B5563" stroke-width="2.14118" stroke-linecap="round" stroke-linejoin="round"/>
</svg>
