<svg width="26" height="26" viewBox="0 0 26 26" fill="none" xmlns="http://www.w3.org/2000/svg">
<path d="M22.3326 22.5321L15.962 16.1615M18.0855 10.8527C18.0855 11.8287 17.8933 12.7952 17.5198 13.6969C17.1463 14.5986 16.5988 15.418 15.9086 16.1081C15.2185 16.7983 14.3992 17.3458 13.4974 17.7193C12.5957 18.0928 11.6292 18.285 10.6532 18.285C9.67715 18.285 8.71067 18.0928 7.80894 17.7193C6.90721 17.3458 6.08787 16.7983 5.39771 16.1081C4.70755 15.418 4.16009 14.5986 3.78658 13.6969C3.41307 12.7952 3.22083 11.8287 3.22083 10.8527C3.22083 8.88148 4.00387 6.99103 5.39771 5.5972C6.79155 4.20336 8.682 3.42031 10.6532 3.42031C12.6244 3.42031 14.5148 4.20336 15.9086 5.5972C17.3025 6.99103 18.0855 8.88148 18.0855 10.8527Z" stroke="#4B5563" stroke-width="2.12353" stroke-linecap="round" stroke-linejoin="round"/>
</svg>
