<svg width="23" height="23" viewBox="0 0 23 23" fill="none" xmlns="http://www.w3.org/2000/svg">
<path d="M11.5999 7.91977V11.4884L14.2764 14.1649M19.6293 11.4884C19.6293 12.5428 19.4216 13.5869 19.0181 14.5611C18.6146 15.5353 18.0232 16.4204 17.2776 17.166C16.532 17.9116 15.6468 18.5031 14.6726 18.9066C13.6985 19.3101 12.6544 19.5178 11.5999 19.5178C10.5455 19.5178 9.50137 19.3101 8.52719 18.9066C7.55302 18.5031 6.66786 17.9116 5.92226 17.166C5.17666 16.4204 4.58522 15.5353 4.18171 14.5611C3.77819 13.5869 3.5705 12.5428 3.5705 11.4884C3.5705 9.35886 4.41646 7.31655 5.92226 5.81074C7.42807 4.30494 9.47038 3.45898 11.5999 3.45898C13.7294 3.45898 15.7718 4.30494 17.2776 5.81074C18.7834 7.31655 19.6293 9.35886 19.6293 11.4884Z" stroke="white" stroke-width="1.78431" stroke-linecap="round" stroke-linejoin="round"/>
</svg>
